<?xml version="1.0" encoding="iso-8859-1"?>
<!-- Generator: Adobe Illustrator 19.0.0, SVG Export Plug-In . SVG Version: 6.00 Build 0)  -->
<svg version="1.1" id="Capa_1" xmlns="http://www.w3.org/2000/svg" xmlns:xlink="http://www.w3.org/1999/xlink" x="0px" y="0px"
	 viewBox="0 0 512 512" style="enable-background:new 0 0 512 512;" xml:space="preserve">
<g>
	<g>
		<path d="M467,0H45C20.187,0,0,20.187,0,45v422c0,24.813,20.187,45,45,45h422c24.813,0,45-20.187,45-45V45
			C512,20.187,491.813,0,467,0z M482,467c0,8.271-6.729,15-15,15H45c-8.271,0-15-6.729-15-15V45c0-8.271,6.729-15,15-15h422
			c8.271,0,15,6.729,15,15V467z"/>
	</g>
</g>
<g>
	<g>
		<path d="M196,121h-90c-8.284,0-15,6.716-15,15c0,6.771,0,233.232,0,240c0,8.284,6.716,15,15,15s15-6.716,15-15V271h75
			c41.355,0,75-33.645,75-75S237.355,121,196,121z M196,241h-75v-90h75c24.813,0,45,20.187,45,45S220.813,241,196,241z"/>
	</g>
</g>
<g>
	<g>
		<path d="M406,211h-45v-45c0-8.271,6.729-15,15-15h30c8.284,0,15-6.716,15-15s-6.716-15-15-15h-30c-24.813,0-45,20.187-45,45v45
			h-15c-8.284,0-15,6.716-15,15s6.716,15,15,15h15v135c0,8.284,6.716,15,15,15s15-6.716,15-15V241h45c8.284,0,15-6.716,15-15
			S414.284,211,406,211z"/>
	</g>
</g>
<g>
</g>
<g>
</g>
<g>
</g>
<g>
</g>
<g>
</g>
<g>
</g>
<g>
</g>
<g>
</g>
<g>
</g>
<g>
</g>
<g>
</g>
<g>
</g>
<g>
</g>
<g>
</g>
<g>
</g>
</svg>
